<svg xmlns="http://www.w3.org/2000/svg" viewBox="0 0 400 101.86"><defs><style>.cls-1{fill:#9a0;}.cls-2{fill:#cddc39;}.cls-3{fill:#fff;}.cls-4{fill:#ff9800;}</style></defs><g id="Livello_2" data-name="Livello 2"><g id="Livello_1-2" data-name="Livello 1"><g id="logo"><rect class="cls-1" x="6.37" y="6.37" width="95.5" height="95.5"/><rect class="cls-2" width="95.5" height="95.5"/><path class="cls-3" d="M76.27,56.53C83.75,53.86,88,47.9,88,39.66,88,28.05,79.63,21,65.73,21H44.88V44H14.19V21H6.55V74.47h7.64V50.65H44.88V74.47h7.64V58.21H65.73c1.15,0,2.29-.08,3.36-.15L80.62,74.47h8.32ZM65.5,51.72h-13v-24h13c9.78,0,14.89,4.35,14.89,12S75.28,51.72,65.5,51.72Z"/><path class="cls-4" d="M132.6,57.29H101.53c1.14,5.12,5.5,8.25,11.76,8.25a13.91,13.91,0,0,0,10.3-4l6.34,6.87c-3.82,4.35-9.54,6.64-17,6.64-14.2,0-23.44-8.93-23.44-21.15s9.39-21.15,21.91-21.15c12.07,0,21.38,8.1,21.38,21.31C132.83,55,132.68,56.3,132.6,57.29Zm-31.23-6.95h20.24a9.77,9.77,0,0,0-10.08-8.55C106.11,41.79,102.21,45.07,101.37,50.34Z"/><path class="cls-4" d="M137.74,53.93c0-12.36,9.55-21.15,22.91-21.15,8.63,0,15.42,3.74,18.4,10.46l-9.24,5a10.22,10.22,0,0,0-9.24-5.65c-6,0-10.76,4.2-10.76,11.37s4.73,11.38,10.76,11.38a10.09,10.09,0,0,0,9.24-5.65l9.24,5c-3,6.57-9.77,10.38-18.4,10.38C147.29,75.08,137.74,66.3,137.74,53.93Z"/><path class="cls-4" d="M211.45,32.78v11c-1-.08-1.76-.15-2.67-.15-6.57,0-10.92,3.58-10.92,11.45V74.47H186V33.39h11.37v5.42C200.23,34.84,205.11,32.78,211.45,32.78Z"/><path class="cls-4" d="M260.26,33.39V74.47H249V69.59a16.64,16.64,0,0,1-12.75,5.49c-10.31,0-17.56-5.8-17.56-18.48V33.39h11.91V54.85c0,6.87,3.05,9.93,8.32,9.93,5.5,0,9.47-3.52,9.47-11.08V33.39Z"/><path class="cls-4" d="M269.91,21c0-3.74,3-6.64,7.41-6.64s7.4,2.75,7.4,6.42c0,4-3,6.87-7.4,6.87S269.91,24.77,269.91,21Zm1.45,12.37h11.91V74.47H271.36Z"/><path class="cls-4" d="M320.85,72.49c-2.44,1.75-6,2.59-9.69,2.59-9.7,0-15.35-5-15.35-14.73V43.47h-6.34V34.31h6.34v-10h11.91v10H318v9.16H307.72V60.2c0,3.51,1.91,5.42,5.12,5.42a8.06,8.06,0,0,0,4.81-1.53Z"/><path class="cls-4" d="M366.3,57.29H335.22c1.15,5.12,5.5,8.25,11.76,8.25a14,14,0,0,0,10.31-4l6.34,6.87c-3.82,4.35-9.55,6.64-16.95,6.64-14.21,0-23.44-8.93-23.44-21.15s9.39-21.15,21.91-21.15c12.06,0,21.38,8.1,21.38,21.31C366.53,55,366.38,56.3,366.3,57.29Zm-31.23-6.95H355.3a9.76,9.76,0,0,0-10.07-8.55C339.8,41.79,335.91,45.07,335.07,50.34Z"/><path class="cls-4" d="M400,32.78v11c-1-.08-1.75-.15-2.67-.15-6.57,0-10.92,3.58-10.92,11.45V74.47H374.5V33.39h11.37v5.42C388.78,34.84,393.66,32.78,400,32.78Z"/></g></g></g></svg>